<?xml version="1.0" encoding="UTF-8" standalone="no"?>
<!-- Uploaded to: SVG Repo, www.svgrepo.com, Generator: SVG Repo Mixer Tools -->

<svg
   height="800"
   width="744.16876"
   version="1.1"
   id="_x32_"
   viewBox="0 0 476.26801 512"
   xml:space="preserve"
   sodipodi:docname="calendar-19-svgrepo-com.svg"
   inkscape:version="1.3.2 (091e20e, 2023-11-25)"
   xmlns:inkscape="http://www.inkscape.org/namespaces/inkscape"
   xmlns:sodipodi="http://sodipodi.sourceforge.net/DTD/sodipodi-0.dtd"
   xmlns="http://www.w3.org/2000/svg"
   xmlns:svg="http://www.w3.org/2000/svg"><defs
   id="defs4" /><sodipodi:namedview
   id="namedview4"
   pagecolor="#ffffff"
   bordercolor="#000000"
   borderopacity="0.25"
   inkscape:showpageshadow="2"
   inkscape:pageopacity="0.0"
   inkscape:pagecheckerboard="0"
   inkscape:deskcolor="#d1d1d1"
   inkscape:zoom="0.295"
   inkscape:cx="371.18644"
   inkscape:cy="400"
   inkscape:window-width="1440"
   inkscape:window-height="449"
   inkscape:window-x="0"
   inkscape:window-y="25"
   inkscape:window-maximized="0"
   inkscape:current-layer="g4" />
<style
   type="text/css"
   id="style1">
	.st0{fill:#000000;}
</style>
<g
   id="g4"
   transform="translate(-17.867)">
	<path
   class="st0"
   d="m 118.612,89.297 c 9.482,0 17.176,-7.686 17.176,-17.169 V 17.168 C 135.788,7.686 128.094,0 118.612,0 109.13,0 101.435,7.686 101.435,17.169 v 54.96 c 0,9.482 7.695,17.168 17.177,17.168 z"
   id="path1" />
	<path
   class="st0"
   d="m 255.993,89.297 c 9.482,0 17.176,-7.686 17.176,-17.169 V 17.168 C 273.168,7.686 265.474,0 255.993,0 246.51,0 238.824,7.686 238.824,17.169 v 54.96 c 0,9.482 7.686,17.168 17.169,17.168 z"
   id="path2" />
	<path
   class="st0"
   d="m 427.001,44.899 h -2.714 v 27.229 c 0,17.038 -13.861,30.906 -30.914,30.906 -17.038,0 -30.914,-13.869 -30.914,-30.906 V 44.899 h -75.552 v 27.229 c 0,17.038 -13.87,30.906 -30.914,30.906 -17.038,0 -30.907,-13.869 -30.907,-30.906 V 44.899 h -75.56 v 27.229 c 0,17.038 -13.869,30.906 -30.914,30.906 -17.038,0 -30.914,-13.869 -30.914,-30.906 V 44.899 H 85 c -37.074,0 -67.133,30.058 -67.133,67.133 V 444.867 C 17.867,481.941 47.925,512 85,512 h 342.002 c 37.066,0 67.133,-30.058 67.133,-67.133 V 112.032 C 494.134,74.958 464.067,44.899 427.001,44.899 Z m 39.642,394.872 c -0.1832,24.71532 -20.029,44.753 -44.745,44.753 H 90.103 c -24.716,0 -44.76,-20.037 -44.76,-44.753 L 47.512492,147.09217 H 468.81249 Z"
   id="path3"
   sodipodi:nodetypes="scsssccsssccssscsssssscsssssccs" />
	<path
   class="st0"
   d="m 393.373,89.297 c 9.483,0 17.176,-7.686 17.176,-17.169 V 17.168 C 410.549,7.686 402.855,0 393.373,0 383.89,0 376.196,7.686 376.196,17.169 v 54.96 c 0,9.482 7.694,17.168 17.177,17.168 z"
   id="path4" />
</g>
</svg>
