<?xml version="1.0" encoding="UTF-8" standalone="no"?>
<!-- Uploaded to: SVG Repo, www.svgrepo.com, Generator: SVG Repo Mixer Tools -->

<svg
   fill="#000000"
   version="1.1"
   id="Capa_1"
   width="800"
   height="744.89282"
   viewBox="0 0 612 569.84301"
   xml:space="preserve"
   sodipodi:docname="dates.svg"
   inkscape:version="1.3.2 (091e20e, 2023-11-25)"
   xmlns:inkscape="http://www.inkscape.org/namespaces/inkscape"
   xmlns:sodipodi="http://sodipodi.sourceforge.net/DTD/sodipodi-0.dtd"
   xmlns="http://www.w3.org/2000/svg"
   xmlns:svg="http://www.w3.org/2000/svg"><defs
   id="defs32" /><sodipodi:namedview
   id="namedview32"
   pagecolor="#ffffff"
   bordercolor="#000000"
   borderopacity="0.25"
   inkscape:showpageshadow="2"
   inkscape:pageopacity="0.0"
   inkscape:pagecheckerboard="0"
   inkscape:deskcolor="#d1d1d1"
   inkscape:zoom="0.295"
   inkscape:cx="398.30508"
   inkscape:cy="372.88136"
   inkscape:window-width="1440"
   inkscape:window-height="449"
   inkscape:window-x="0"
   inkscape:window-y="25"
   inkscape:window-maximized="0"
   inkscape:current-layer="Capa_1" />
<g
   id="g32"
   transform="translate(0,-21.079)">
	<g
   id="g31">
		<g
   id="g3">
			<g
   id="g2">
				<g
   id="g1">
					<path
   d="m 479.808,326.519 c -73.02,0 -132.228,59.227 -132.228,132.229 0,72.983 59.208,132.174 132.228,132.174 72.984,0 132.192,-59.19 132.192,-132.174 0,-73.003 -59.208,-132.229 -132.192,-132.229 z m 8.484,229.95 v -11.415 c 0,-4.722 -3.808,-8.538 -8.484,-8.538 -4.722,0 -8.521,3.826 -8.521,8.538 v 11.415 c -47.341,-4.07 -85.158,-41.896 -89.229,-89.229 h 11.451 c 4.677,0 8.502,-3.809 8.502,-8.484 0,-4.758 -3.825,-8.521 -8.502,-8.521 h -11.451 c 4.07,-47.351 41.896,-85.14 89.229,-89.229 v 11.433 c 0,4.704 3.809,8.521 8.521,8.521 4.677,0 8.484,-3.826 8.484,-8.521 v -11.433 c 47.359,4.089 85.177,41.878 89.229,89.229 H 566.07 c -4.703,0 -8.502,3.771 -8.502,8.521 0,4.686 3.808,8.484 8.502,8.484 h 11.451 c -4.043,47.332 -41.87,85.149 -89.229,89.229 z"
   id="path1" />
				</g>
			</g>
		</g>
		<g
   id="g6">
			<g
   id="g5">
				<g
   id="g4">
					<path
   d="m 529.066,445.966 h -30.671 c -4.089,-5.897 -10.881,-9.813 -18.588,-9.813 -0.117,0 -0.244,0.036 -0.38,0.036 l -27.948,-39.346 c -4.07,-5.726 -12.048,-7.055 -17.792,-3.003 -5.726,4.089 -7.101,12.084 -3.003,17.828 l 27.967,39.363 c -0.859,2.415 -1.41,4.984 -1.41,7.725 0,12.464 10.085,22.549 22.566,22.549 7.707,0 14.535,-3.88 18.588,-9.796 h 30.671 c 7.037,0 12.763,-5.688 12.763,-12.744 0,-7.091 -5.725,-12.799 -12.763,-12.799 z"
   id="path3" />
				</g>
			</g>
		</g>
		<g
   id="g9">
			<g
   id="g8">
				<g
   id="g7">
					<path
   d="m 127.245,195.593 c 23.137,0 41.86,-18.741 41.86,-41.851 V 62.93 c 0,-23.119 -18.723,-41.851 -41.86,-41.851 -23.119,0 -41.833,18.732 -41.833,41.851 v 90.821 c 0,23.101 18.713,41.842 41.833,41.842 z"
   id="path6" />
				</g>
			</g>
		</g>
		<g
   id="g12">
			<g
   id="g11">
				<g
   id="g10">
					<path
   d="m 383.578,195.593 c 23.138,0 41.86,-18.741 41.86,-41.851 V 62.93 c 0,-23.119 -18.723,-41.851 -41.86,-41.851 -23.101,0 -41.832,18.732 -41.832,41.851 v 90.821 c -0.01,23.101 18.732,41.842 41.832,41.842 z"
   id="path9" />
				</g>
			</g>
		</g>
		<g
   id="g15">
			<g
   id="g14">
				<g
   id="g13">
					<path
   d="m 183.957,311.793 c 0,-11.948 -9.66,-21.626 -21.636,-21.626 h -40.105 c -11.948,0 -21.653,9.678 -21.653,21.626 v 40.088 c 0,11.966 9.705,21.672 21.653,21.672 h 40.105 c 11.966,0 21.636,-9.706 21.636,-21.672 z"
   id="path12" />
				</g>
			</g>
		</g>
		<g
   id="g18">
			<g
   id="g17">
				<g
   id="g16">
					<path
   d="m 297.127,311.82 c 0,-11.948 -9.687,-21.617 -21.608,-21.617 h -40.124 c -11.948,0 -21.618,9.669 -21.618,21.617 v 40.097 c 0,11.93 9.669,21.636 21.618,21.636 h 40.124 c 11.93,0 21.608,-9.706 21.608,-21.636 z"
   id="path15" />
				</g>
			</g>
		</g>
		<g
   id="g21">
			<g
   id="g20">
				<g
   id="g19">
					<path
   d="m 348.548,290.167 c -11.967,0 -21.654,9.678 -21.654,21.626 v 40.088 c 0,10.826 8.068,19.365 18.416,20.984 15.864,-24.711 38.332,-44.719 64.934,-57.653 v -3.419 c 0,-11.948 -9.669,-21.626 -21.636,-21.626 z"
   id="path18" />
				</g>
			</g>
		</g>
		<g
   id="g24">
			<g
   id="g23">
				<g
   id="g22">
					<path
   d="m 122.225,398.833 c -11.948,0 -21.654,9.669 -21.654,21.617 v 40.105 c 0,11.948 9.706,21.617 21.654,21.617 h 40.124 c 11.948,0 21.608,-9.669 21.608,-21.617 V 420.45 c 0,-11.948 -9.66,-21.617 -21.608,-21.617 z"
   id="path21" />
				</g>
			</g>
		</g>
		<g
   id="g27">
			<g
   id="g26">
				<g
   id="g25">
					<path
   d="m 275.473,398.851 h -40.087 c -11.948,0 -21.617,9.688 -21.617,21.636 v 40.069 c 0,11.948 9.669,21.617 21.617,21.617 h 40.087 c 11.93,0 21.618,-9.669 21.618,-21.617 v -40.069 c 0,-11.949 -9.688,-21.636 -21.618,-21.636 z"
   id="path24" />
				</g>
			</g>
		</g>
		<g
   id="g30">
			<g
   id="g29">
				<g
   id="g28">
					<path
   d="M 333.939,523.59 H 130.474 c -35.022,0 -63.523,-28.5 -63.523,-63.486 V 247.592 H 443.909 V 303.2 c 11.551,-2.659 23.518,-4.215 35.899,-4.215 10.619,0 20.984,1.095 31.033,3.094 V 102.204 h -60.293 v 51.538 c 0,36.921 -30.021,66.951 -66.97,66.951 -36.93,0 -66.95,-30.029 -66.95,-66.951 V 102.204 H 194.213 v 51.538 c 0,36.921 -30.039,66.951 -66.969,66.951 -36.913,0 -66.951,-30.029 -66.951,-66.951 V 102.204 H 0 v 357.891 c 0,72.034 58.412,130.474 130.474,130.474 h 249.885 c 2.967,0 5.897,-0.244 8.81,-0.435 -24.006,-16.589 -43.182,-39.609 -55.23,-66.544 z"
   id="path27" />
				</g>
			</g>
		</g>
	</g>
</g>
</svg>
