<?xml version="1.0" encoding="UTF-8" standalone="no"?>
<!-- Uploaded to: SVG Repo, www.svgrepo.com, Generator: SVG Repo Mixer Tools -->

<svg
   fill="#000000"
   version="1.1"
   id="Layer_1"
   viewBox="0 0 18 20"
   xml:space="preserve"
   sodipodi:docname="evento.svg"
   width="18"
   height="20"
   inkscape:version="1.3.2 (091e20e, 2023-11-25)"
   xmlns:inkscape="http://www.inkscape.org/namespaces/inkscape"
   xmlns:sodipodi="http://sodipodi.sourceforge.net/DTD/sodipodi-0.dtd"
   xmlns="http://www.w3.org/2000/svg"
   xmlns:svg="http://www.w3.org/2000/svg"><defs
   id="defs2" /><sodipodi:namedview
   id="namedview2"
   pagecolor="#ffffff"
   bordercolor="#000000"
   borderopacity="0.25"
   inkscape:showpageshadow="2"
   inkscape:pageopacity="0.0"
   inkscape:pagecheckerboard="0"
   inkscape:deskcolor="#d1d1d1"
   inkscape:clip-to-page="false"
   inkscape:zoom="9.8333333"
   inkscape:cx="8.8983051"
   inkscape:cy="9.9661017"
   inkscape:window-width="1440"
   inkscape:window-height="673"
   inkscape:window-x="0"
   inkscape:window-y="96"
   inkscape:window-maximized="0"
   inkscape:current-layer="Layer_1" />
<style
   type="text/css"
   id="style1">
	.st0{fill:none;}
</style>
<path
   d="M 3,0 V 2 H 2 C 0.9,2 0,2.9 0,4 v 14 c 0,1.1 0.9,2 2,2 h 14 c 1.1,0 2,-0.9 2,-2 V 4 C 18,2.9 17.1,2 16,2 H 15 V 0 H 13 V 2 H 5 V 0 Z M 2,7 H 16 V 18 H 2 Z"
   id="path1" />
<path
   d="M 12.9,16.3 10.5,14.8 8,16.3 8.6,13.6 6.5,11.8 9.3,11.6 10.4,9 l 1.1,2.6 2.8,0.3 -2.1,1.8 z"
   id="path2" />
<rect
   class="st0"
   width="24"
   height="24"
   id="rect2"
   x="-3"
   y="-2" />
</svg>
