<?xml version="1.0" encoding="UTF-8" standalone="no"?>
<!-- Uploaded to: SVG Repo, www.svgrepo.com, Generator: SVG Repo Mixer Tools -->

<svg
   width="750"
   height="750"
   viewBox="0 0 45 45"
   fill="none"
   version="1.1"
   id="svg3"
   sodipodi:docname="reservation.svg"
   inkscape:version="1.3.2 (091e20e, 2023-11-25)"
   xmlns:inkscape="http://www.inkscape.org/namespaces/inkscape"
   xmlns:sodipodi="http://sodipodi.sourceforge.net/DTD/sodipodi-0.dtd"
   xmlns="http://www.w3.org/2000/svg"
   xmlns:svg="http://www.w3.org/2000/svg">
  <defs
     id="defs3" />
  <sodipodi:namedview
     id="namedview3"
     pagecolor="#ffffff"
     bordercolor="#000000"
     borderopacity="0.25"
     inkscape:showpageshadow="2"
     inkscape:pageopacity="0.0"
     inkscape:pagecheckerboard="0"
     inkscape:deskcolor="#d1d1d1"
     inkscape:zoom="0.295"
     inkscape:cx="398.30508"
     inkscape:cy="400"
     inkscape:window-width="1440"
     inkscape:window-height="719"
     inkscape:window-x="49"
     inkscape:window-y="31"
     inkscape:window-maximized="0"
     inkscape:current-layer="svg3" />
  <path
     d="m 32.372881,28.576271 v -1.011 c 0,-1.6508 1.3382,-2.989 2.989,-2.989 v 0 c 1.6491,0 2.9866,1.3356 2.989,2.9847 l 0.0061,4.166774 0.0059,4.033826 c 0.0055,3.762 -3.0427,6.8147 -6.8047,6.8147 h -7.5381 c -4.413,0 -8.565,-2.0912 -11.192,-5.637 l -4.2651996,-5.7568 c -0.72032,-0.9723 -0.78408,-2.2827 -0.1615,-3.3204 v 0 c 1.0014,-1.669 3.3046996,-1.9526 4.6810996,-0.5762 l 1.2904,1.2904 v -14 c 0,-1.6569 1.3431,-3 3,-3 v 0 c 1.6569,0 3,1.3431 3,3 v 11.875 -6.8487 c 0,-1.6714 1.3549,-3.0263 3.0263,-3.0263 v 0 c 1.6714,0 3.0263,1.3549 3.0263,3.0263 v 7.9737 -1.1013 c 0,-1.6423 1.3314,-2.9737 2.9737,-2.9737 v 0 c 1.6423,0 2.9737,1.3314 2.9737,2.9737 z"
     stroke="#000000"
     stroke-width="4"
     stroke-linecap="round"
     stroke-linejoin="round"
     id="path1"
     sodipodi:nodetypes="cssscccssccssscsssscsssscssssc"
     style="stroke-width:3.6;stroke-dasharray:none" />
  <path
     d="M 30.372881,2.5762712 V 10.576271"
     stroke="#000000"
     stroke-width="4"
     stroke-linecap="round"
     id="path2"
     style="stroke-width:3.6;stroke-dasharray:none" />
  <path
     d="M 14.372881,18.576271 H 4.3728814 v -4 c 2,0 4,-1.5 3.97403,-4 -0.02598,-2.4999998 -1.97403,-3.9999998 -3.97403,-3.9999998 v -4 H 40.372881 v 4 c -2,0 -3.9481,1.5 -3.974,3.9999998 -0.026,2.5 1.974,4 3.974,4 v 4 h -14"
     stroke="#000000"
     stroke-width="4"
     stroke-linecap="round"
     stroke-linejoin="round"
     id="path3"
     style="stroke-width:3.6;stroke-dasharray:none" />
</svg>
