<?xml version="1.0" encoding="UTF-8" standalone="no"?>
<!-- Uploaded to: SVG Repo, www.svgrepo.com, Generator: SVG Repo Mixer Tools -->

<svg
   width="650.08813"
   height="716.89209"
   viewBox="0 0 19.502644 21.506763"
   fill="none"
   version="1.1"
   id="svg1"
   sodipodi:docname="school.svg"
   inkscape:version="1.3.2 (091e20e, 2023-11-25)"
   xmlns:inkscape="http://www.inkscape.org/namespaces/inkscape"
   xmlns:sodipodi="http://sodipodi.sourceforge.net/DTD/sodipodi-0.dtd"
   xmlns="http://www.w3.org/2000/svg"
   xmlns:svg="http://www.w3.org/2000/svg">
  <defs
     id="defs1" />
  <sodipodi:namedview
     id="namedview1"
     pagecolor="#ffffff"
     bordercolor="#000000"
     borderopacity="0.25"
     inkscape:showpageshadow="2"
     inkscape:pageopacity="0.0"
     inkscape:pagecheckerboard="0"
     inkscape:deskcolor="#d1d1d1"
     inkscape:zoom="0.295"
     inkscape:cx="323.72881"
     inkscape:cy="359.32203"
     inkscape:window-width="1440"
     inkscape:window-height="449"
     inkscape:window-x="0"
     inkscape:window-y="338"
     inkscape:window-maximized="0"
     inkscape:current-layer="svg1" />
  <path
     d="m 3.7513217,14.255442 h 1 m -1,3 h 1 m 10.0000003,0 h 1 m -1,-3 h 1 m -8.0000003,6.5 v -4 c 0,-1.1046 0.8954,-2 2,-2 1.1046003,0 2.0000003,0.8954 2.0000003,2 v 4 M 9.7513217,3.7552415 h 4.8400003 c 0.056,0 0.084,0 0.1054,-0.0109 0.0188,-0.00959 0.0341,-0.02488 0.0437,-0.0437 0.0109,-0.02139 0.0109,-0.04939 0.0109,-0.1054 V 0.91524153 c 0,-0.05601 0,-0.08401 -0.0109,-0.1054 -0.0096,-0.01882 -0.0249,-0.03411 -0.0437,-0.0437 -0.0214,-0.0109 -0.0494,-0.0109 -0.1054,-0.0109 H 9.9113217 c -0.056,0 -0.084,0 -0.1054,0.0109 -0.0188,0.00959 -0.0341,0.02488 -0.0437,0.0437 -0.0109,0.02139 -0.0109,0.04939 -0.0109,0.1054 z m 0,0 v 2.69092 m 0.03,4.5590805 h 0.0075 m -0.0375,-4.5590805 c 0.1947,0 0.3895003,0.02843 0.5779003,0.08531 0.4278,0.12913 0.8062,0.46962 1.5628,1.15058 l 2.8593,2.5733905 1.5761,0.394 c 0.8667,0.2167 1.3,0.325 1.6227,0.5666 0.2846,0.2132 0.5073,0.4984 0.6451,0.8263 0.1561,0.3716 0.1561,0.8182 0.1561,1.7116 v 3.8015 c 0,1.1201 0,1.6802 -0.218,2.108 -0.1917,0.3763 -0.4977,0.6823 -0.874,0.874 -0.4278,0.218 -0.9879,0.218 -2.108,0.218 H 3.9513217 c -1.1201,0 -1.68016,0 -2.10798,-0.218 -0.37633,-0.1917 -0.68229,-0.4977 -0.87403001,-0.874 -0.21799,-0.4278 -0.21799,-0.9879 -0.21799,-2.108 v -3.8015 c 0,-0.8934 0,-1.34 0.15613,-1.7116 0.13775001,-0.3279 0.36044001,-0.6131 0.64511001,-0.8263 0.32265,-0.2416 0.75598,-0.3499 1.62264,-0.5666 l 1.57612,-0.394 2.85931,-2.5733905 c 0.75659,-0.68097 1.13499,-1.02145 1.56279,-1.15058 0.1884,-0.05688 0.3832,-0.08531 0.5779,-0.08531 z m 0.03,5.3090805 c -0.4142,0 -0.75,-0.3358 -0.75,-0.75 0,-0.4142 0.3358,-0.75 0.75,-0.75 0.4142003,0 0.7500003,0.3358 0.7500003,0.75 0,0.4142 -0.3358,0.75 -0.7500003,0.75 z"
     stroke="#000000"
     stroke-width="2"
     stroke-linecap="round"
     stroke-linejoin="round"
     id="path1"
     style="stroke-width:1.5;stroke-dasharray:none" />
</svg>
