<?xml version="1.0" encoding="UTF-8" standalone="no"?>
<!-- Uploaded to: SVG Repo, www.svgrepo.com, Generator: SVG Repo Mixer Tools -->

<svg
   width="696.39484"
   height="738.94421"
   viewBox="0 0 20.891845 22.168326"
   fill="none"
   version="1.1"
   id="svg3"
   sodipodi:docname="teacher.svg"
   inkscape:version="1.3.2 (091e20e, 2023-11-25)"
   xmlns:inkscape="http://www.inkscape.org/namespaces/inkscape"
   xmlns:sodipodi="http://sodipodi.sourceforge.net/DTD/sodipodi-0.dtd"
   xmlns="http://www.w3.org/2000/svg"
   xmlns:svg="http://www.w3.org/2000/svg">
  <defs
     id="defs3" />
  <sodipodi:namedview
     id="namedview3"
     pagecolor="#ffffff"
     bordercolor="#000000"
     borderopacity="0.25"
     inkscape:showpageshadow="2"
     inkscape:pageopacity="0.0"
     inkscape:pagecheckerboard="0"
     inkscape:deskcolor="#d1d1d1"
     inkscape:zoom="0.295"
     inkscape:cx="347.45763"
     inkscape:cy="371.18644"
     inkscape:window-width="1440"
     inkscape:window-height="702"
     inkscape:window-x="0"
     inkscape:window-y="57"
     inkscape:window-maximized="0"
     inkscape:current-layer="svg3" />
  <path
     d="m 8.491845,1.6266307 -6.01998,3.93 c -1.92999999,1.26 -1.92999999,4.07996 0,5.3399603 l 6.01998,3.93 c 1.08,0.71 2.86,0.71 3.94,0 l 5.99,-3.93 c 1.92,-1.2600003 1.92,-4.0699603 0,-5.3299603 l -5.99,-3.93 c -1.08,-0.72000002 -2.86,-0.72000002 -3.94,-0.01 z"
     stroke="#292d32"
     stroke-width="1.5"
     stroke-linecap="round"
     stroke-linejoin="round"
     id="path1"
     style="stroke-width:1.79999998;stroke-dasharray:none" />
  <path
     d="m 4.071845,12.176591 -0.01,4.69 c 0,1.27 0.98,2.63 2.18,3.03 l 3.19,1.06 c 0.55,0.18 1.46,0.18 2.02,0 l 3.19,-1.06 c 1.2,-0.4 2.18,-1.76 2.18,-3.03 v -4.64"
     stroke="#292d32"
     stroke-width="1.5"
     stroke-linecap="round"
     stroke-linejoin="round"
     id="path2"
     style="stroke-width:1.79999998;stroke-dasharray:none" />
  <path
     d="M 19.841845,14.096591 V 8.0965907"
     stroke="#292d32"
     stroke-width="1.5"
     stroke-linecap="round"
     stroke-linejoin="round"
     id="path3"
     style="stroke-width:1.79999998;stroke-dasharray:none" />
</svg>
